<svg width="84" height="19" viewBox="0 0 84 19" fill="none" xmlns="http://www.w3.org/2000/svg">
<g clip-path="url(#clip0_64_400)">
<path d="M17.6486 9.25774C17.6473 11.4607 16.7669 13.5729 15.201 15.1299C13.6352 16.6869 11.512 17.5612 9.29859 17.5605C7.08513 17.5598 4.96255 16.6843 3.39763 15.1263C1.83272 13.5684 0.953594 11.4557 0.953594 9.25276C0.953594 7.04984 1.83272 4.93711 3.39763 3.37917C4.96255 1.82124 7.08513 0.945669 9.29859 0.945008C11.512 0.944346 13.6352 1.81865 15.201 3.37565C16.7669 4.93264 17.6473 7.04485 17.6486 9.24777" fill="black"/>
<path d="M8.21339 15.6451L9.84089 14.0253L6.70664 10.906C6.57491 10.7749 6.43173 10.6106 6.35489 10.4244C6.17877 10.0524 6.10193 9.47245 6.531 9.04543C7.05886 8.52008 7.76236 8.73905 8.44439 9.41783L11.4574 12.4165L13.0849 10.7968L9.93968 7.6665C9.80796 7.5354 9.6538 7.33828 9.57695 7.17393C9.36791 6.74738 9.37889 6.2111 9.76405 5.82778C10.3029 5.2915 11.0064 5.48863 11.7877 6.26573L14.7124 9.177L16.3399 7.55725L13.1727 4.40515C11.5672 2.80725 10.0609 2.86188 9.02714 3.89073C8.631 4.28498 8.38902 4.7006 8.26827 5.17133C8.15909 5.60816 8.14413 6.06307 8.22436 6.50608L8.20241 6.5284C7.41014 6.20018 6.50857 6.39683 5.81605 7.08653C4.89205 8.00565 4.92546 8.97988 5.03523 9.54893L5.00182 9.58218L4.19952 8.93618L2.79157 10.337C3.2865 10.7858 3.88071 11.333 4.55127 12.0004L8.21339 15.6451Z" fill="white"/>
<path d="M9.53687 3.8592e-06C7.64932 0.00169456 5.80465 0.560297 4.23604 1.6052C2.66743 2.6501 1.4453 4.13439 0.724145 5.87043C0.00298974 7.60648 -0.184817 9.51634 0.184466 11.3586C0.553749 13.2009 1.46354 14.8928 2.79884 16.2205C4.13414 17.5483 5.83499 18.4522 7.68639 18.8181C9.53779 19.184 11.4566 18.9953 13.2003 18.276C14.944 17.5568 16.4343 16.3391 17.4828 14.777C18.5313 13.2149 19.0909 11.3786 19.0909 9.5V9.4886C19.0879 6.96954 18.0797 4.55481 16.288 2.77543C14.4964 0.996059 12.068 -0.00226511 9.53687 3.8592e-06ZM9.49344 2.03015C11.476 2.02839 13.3781 2.81038 14.7814 4.20416C16.1847 5.59794 16.9743 7.48936 16.9766 9.46248V9.47103C16.9766 10.9424 16.5383 12.3807 15.7171 13.6042C14.8959 14.8277 13.7286 15.7814 12.3629 16.3448C10.9972 16.9082 9.49426 17.056 8.04416 16.7694C6.59406 16.4829 5.26187 15.7749 4.21598 14.735C3.17009 13.6951 2.45746 12.37 2.16817 10.927C1.87888 9.48412 2.02592 7.98823 2.5907 6.62846C3.15548 5.2687 4.11264 4.1061 5.3412 3.28763C6.56976 2.46916 8.01456 2.03156 9.49296 2.03015H9.49344Z" fill="#FFBD3F"/>
<path d="M22.2156 13.2724H24.4063V9.07345C24.4063 8.89627 24.4216 8.69013 24.4955 8.51295C24.6292 8.14483 24.9695 7.7026 25.547 7.7026C26.2576 7.7026 26.5831 8.32152 26.5831 9.23495V13.2724H28.7743V9.05825C28.7743 8.88155 28.8039 8.64595 28.8631 8.4835C29.011 8.056 29.3814 7.7026 29.8997 7.7026C30.6252 7.7026 30.9659 8.3068 30.9659 9.35322V13.2724H33.1566V9.0288C33.1566 6.87705 32.1057 5.9052 30.7139 5.9052C30.1813 5.9052 29.737 6.023 29.337 6.2586C28.9679 6.47954 28.6501 6.7758 28.4044 7.12785H28.3748C28.0636 6.3764 27.3234 5.90472 26.3908 5.90472C25.147 5.90472 24.5103 6.58302 24.1996 7.03998H24.1553L24.0512 6.06717H22.1564C22.186 6.70082 22.2156 7.467 22.2156 8.36618V13.2724ZM40.9538 10.3844C40.9834 10.2225 41.0278 9.88332 41.0278 9.50047C41.0278 7.71732 40.1396 5.90472 37.8 5.90472C35.2829 5.90472 34.1431 7.92347 34.1431 9.7508C34.1431 12.0056 35.5497 13.4349 38.0071 13.4349C38.9846 13.4349 39.8876 13.2725 40.6278 12.978L40.3319 11.4603C39.7248 11.6518 39.103 11.7548 38.3331 11.7548C37.2817 11.7548 36.3639 11.3131 36.2899 10.3844H40.9538ZM36.2751 8.8521C36.3343 8.2479 36.719 7.39337 37.6668 7.39337C38.703 7.39337 38.9402 8.3068 38.9402 8.85162L36.2751 8.8521ZM42.2945 4.5049V6.06717H41.3318V7.71732H42.2945V10.6647C42.2945 11.6812 42.5016 12.3737 42.9164 12.8012C43.2715 13.1694 43.8785 13.4349 44.604 13.4349C45.2407 13.4349 45.7738 13.3465 46.0702 13.2283L46.0549 11.5339C45.8352 11.5737 45.6124 11.5934 45.3891 11.5928C44.708 11.5928 44.5004 11.1948 44.5004 10.3256V7.7178H46.1146V6.06717H44.5004V4.00425L42.2945 4.5049ZM53.0789 9.01407C53.0789 7.31975 52.3091 5.90472 49.896 5.90472C48.5783 5.90472 47.586 6.2586 47.0825 6.53838L47.4972 7.98238C47.9712 7.68788 48.7558 7.43755 49.496 7.43755C50.6067 7.43755 50.8138 7.98285 50.8138 8.3657V8.46878C48.2523 8.45452 46.5646 9.35322 46.5646 11.2242C46.5646 12.3737 47.438 13.4349 48.9037 13.4349C49.7624 13.4349 50.5026 13.1252 50.9765 12.5504H51.0209L51.1541 13.2724H53.1825C53.1085 12.8749 53.0789 12.2118 53.0789 11.5192V9.01407ZM50.8878 10.65C50.8878 10.7825 50.873 10.915 50.8434 11.0328C50.6954 11.4898 50.2363 11.8579 49.6736 11.8579C49.1701 11.8579 48.7854 11.5776 48.7854 11.0034C48.7854 10.1341 49.7032 9.85387 50.8878 9.8686V10.65ZM59.6605 11.4309C59.3198 11.5781 58.9055 11.6665 58.3724 11.6665C57.2765 11.6665 56.3883 10.9739 56.3883 9.64773C56.3735 8.46878 57.1434 7.62898 58.328 7.62898C58.9203 7.62898 59.3198 7.73205 59.5865 7.84985L59.9416 6.18497C59.4682 6.00828 58.8167 5.90472 58.2244 5.90472C55.5297 5.90472 54.0788 7.62897 54.0788 9.73607C54.0788 12.0056 55.5741 13.4349 57.9132 13.4349C58.7723 13.4349 59.5274 13.2724 59.9268 13.0957L59.6605 11.4309ZM60.7912 13.2724H63.042V9.61875C63.042 9.44205 63.0568 9.26535 63.0864 9.11762C63.2343 8.42507 63.797 7.98332 64.6261 7.98332C64.8781 7.98332 65.0704 8.01277 65.2332 8.05695V5.93512C65.0704 5.9052 64.9668 5.9052 64.7592 5.9052C64.0634 5.9052 63.1752 6.34742 62.8048 7.39385H62.7456L62.6716 6.06765H60.732C60.7616 6.68657 60.7912 7.37865 60.7912 8.4398V13.2724ZM68.27 13.2724V6.0667H66.0197V13.2724H68.27ZM67.1451 2.92838C66.4197 2.92838 65.9457 3.41478 65.9605 4.06315C65.9457 4.68208 66.4197 5.18273 67.1303 5.18273C67.8706 5.18273 68.344 4.68208 68.344 4.06315C68.3292 3.41478 67.8706 2.92838 67.1451 2.92838ZM69.9973 4.5049V6.06717H69.0351V7.71732H69.9973V10.6647C69.9973 11.6812 70.2044 12.3737 70.6192 12.8012C70.9743 13.1694 71.5814 13.4349 72.3068 13.4349C72.9435 13.4349 73.4766 13.3465 73.773 13.2283L73.7582 11.5339C73.5384 11.5737 73.3154 11.5934 73.0919 11.5928C72.4109 11.5928 72.2033 11.1948 72.2033 10.3256V7.7178H73.8174V6.06717H72.2033V4.00425L69.9973 4.5049ZM76.9917 13.2724V6.0667H74.7409V13.2724H76.9917ZM75.8663 2.92838C75.1409 2.92838 74.6669 3.41478 74.6817 4.06315C74.6669 4.68208 75.1409 5.18273 75.8515 5.18273C76.5918 5.18273 77.0657 4.68208 77.0657 4.06315C77.0509 3.41478 76.5918 2.92838 75.8663 2.92838ZM83.5752 11.4309C83.2345 11.5781 82.8202 11.6665 82.2871 11.6665C81.1912 11.6665 80.303 10.9739 80.303 9.64773C80.2882 8.46878 81.0581 7.62898 82.2427 7.62898C82.835 7.62898 83.2345 7.73205 83.5012 7.84985L83.8563 6.18497C83.3824 6.00828 82.7309 5.90472 82.1391 5.90472C79.4444 5.90472 77.993 7.62897 77.993 9.73607C77.993 12.0056 79.4888 13.4349 81.8279 13.4349C82.6865 13.4349 83.4416 13.2724 83.8415 13.0957L83.5752 11.4309Z" fill="white"/>
</g>
<defs>
<clipPath id="clip0_64_400">
<rect width="84" height="19" fill="white"/>
</clipPath>
</defs>
</svg>
